<svg width="800" height="1000" viewBox="0 0 800 1000" fill="none" xmlns="http://www.w3.org/2000/svg">
  <rect width="800" height="1000" rx="52" fill="#112436"/>
  <rect x="20" y="20" width="760" height="960" rx="40" stroke="#B9E4DD" stroke-opacity="0.22" stroke-width="2"/>
  <path d="M95 126C95 92.3106 122.311 65 156 65H643C676.689 65 704 92.3106 704 126V874C704 907.689 676.689 935 643 935H156C122.311 935 95 907.689 95 874V126Z" fill="url(#paint0_linear)"/>
  <circle cx="401" cy="280" r="118" fill="#D9F4EF" fill-opacity="0.1"/>
  <path d="M293 276C293 216.906 340.906 169 400 169C459.094 169 507 216.906 507 276V337C507 396.094 459.094 444 400 444C340.906 444 293 396.094 293 337V276Z" fill="#D9F4EF" fill-opacity="0.18"/>
  <path d="M210 775C210 640.795 318.795 532 453 532H473C607.205 532 716 640.795 716 775V842H210V775Z" fill="#18354D"/>
  <path d="M182 816C182 663.607 305.607 540 458 540H492C644.393 540 768 663.607 768 816V842H182V816Z" stroke="#68C1BA" stroke-opacity="0.2" stroke-width="2"/>
  <path d="M166 116L634 884" stroke="#68C1BA" stroke-opacity="0.08" stroke-width="28" stroke-linecap="round"/>
  <defs>
    <linearGradient id="paint0_linear" x1="95" y1="65" x2="704" y2="935" gradientUnits="userSpaceOnUse">
      <stop stop-color="#1A3144"/>
      <stop offset="1" stop-color="#162E41"/>
    </linearGradient>
  </defs>
</svg>
